<svg width="38" height="38" viewBox="0 0 38 38" fill="none" xmlns="http://www.w3.org/2000/svg">
  <style>
    .favicon-fill {
      fill: #1A241F;
    }

    .favicon-stroke {
      stroke: #1A241F;
    }

    @media (prefers-color-scheme: dark) {
      .favicon-fill {
        fill: #ffffff;
      }

      .favicon-stroke {
        stroke: #ffffff;
      }
    }
  </style>

  <path
    class="favicon-fill"
    d="M20.35 14.9C20.35 15.5333 20.5083 16.0917 20.825 16.575C21.1583 17.0417 21.5833 17.4667 22.1 17.85C22.6333 18.2333 23.1917 18.6167 23.775 19C24.4083 19.4 25.0083 19.825 25.575 20.275C26.1583 20.7083 26.6333 21.2167 27 21.8C27.3833 22.3667 27.575 23.05 27.575 23.85C27.575 24.7333 27.3333 25.5083 26.85 26.175C26.3833 26.8417 25.7417 27.3667 24.925 27.75C24.125 28.1167 23.2083 28.3 22.175 28.3C21.675 28.3 21.15 28.25 20.6 28.15C20.0667 28.05 19.575 27.925 19.125 27.775C18.6917 27.625 18.375 27.4667 18.175 27.3C18.1083 27.25 18.05 27.2 18 27.15C17.95 27.0833 17.925 26.975 17.925 26.825L17.85 22.85C17.8333 22.7667 17.8667 22.725 17.95 22.725C18.05 22.7083 18.1083 22.7333 18.125 22.8C18.375 23.3167 18.65 23.8667 18.95 24.45C19.25 25.0167 19.5833 25.5417 19.95 26.025C20.3333 26.5083 20.7583 26.9083 21.225 27.225C21.6917 27.525 22.225 27.675 22.825 27.675C23.2083 27.675 23.575 27.6083 23.925 27.475C24.275 27.3417 24.5583 27.1 24.775 26.75C25.0083 26.4 25.125 25.9167 25.125 25.3C25.125 24.5167 24.95 23.85 24.6 23.3C24.25 22.7333 23.8 22.2417 23.25 21.825C22.7 21.3917 22.125 20.9833 21.525 20.6C20.9417 20.2167 20.3833 19.825 19.85 19.425C19.3167 19.0083 18.8833 18.5417 18.55 18.025C18.2167 17.4917 18.05 16.8583 18.05 16.125C18.05 15.1917 18.3083 14.4333 18.825 13.85C19.3583 13.25 20.025 12.8083 20.825 12.525C21.6417 12.2417 22.4667 12.1 23.3 12.1C23.9 12.1 24.5 12.1583 25.1 12.275C25.7 12.375 26.175 12.5 26.525 12.65C26.6917 12.7167 26.7917 12.7917 26.825 12.875C26.875 12.9583 26.9 13.05 26.9 13.15V16.825C26.9 16.875 26.8583 16.9167 26.775 16.95C26.7083 16.9667 26.6583 16.95 26.625 16.9C26.525 16.7 26.3833 16.375 26.2 15.925C26.0167 15.4583 25.775 14.975 25.475 14.475C25.175 13.975 24.7917 13.55 24.325 13.2C23.8583 12.8333 23.2917 12.65 22.625 12.65C22.2083 12.65 21.825 12.7333 21.475 12.9C21.1417 13.0667 20.8667 13.3167 20.65 13.65C20.45 13.9667 20.35 14.3833 20.35 14.9Z"
  />

  <circle class="favicon-stroke" cx="19" cy="19" r="18" stroke-width="2" />

  <circle class="favicon-fill" cx="11" cy="13" r="3" />
</svg>